# xmcd
#
# Track frame offsets:
#	150
#	27596
#	44496
#	70613
#	88078
#	113363
#	128437
#	138938
#	153670
#	174220
#
# Disc length: 2944 seconds
#
# Revision: 0
# Processed by: cddbd v1.5.2PL0 Copyright (c) Steve Scherf et al.
# Submitted via: dBpowerAMP V4.0
#
DISCID=780b7e0a
DTITLE=David Dondero - Simple Love
DYEAR=2007
DGENRE=Country
TTITLE0=The Prince Wiliiam Sound
TTITLE1=When The Heart Breaks Deep
TTITLE2=Rothko Chapel
TTITLE3=Stuck On The Moon
TTITLE4=Simple Love
TTITLE5=You Don't Love Anyone
TTITLE6=Mighty Mississip
TTITLE7=One Legged Man And The Three Legged Dog
TTITLE8=Lone Rose
TTITLE9=Double Murder Ballad Suicide
EXTD=
EXTT0=
EXTT1=
EXTT2=
EXTT3=
EXTT4=
EXTT5=
EXTT6=
EXTT7=
EXTT8=
EXTT9=
PLAYORDER=
